<svg width="96" height="96" viewBox="0 0 96 96" fill="none" xmlns="http://www.w3.org/2000/svg" role="img" aria-label="Polélé, conseillère agricole">
  <defs>
    <linearGradient id="poleleBg" x1="0" y1="0" x2="96" y2="96" gradientUnits="userSpaceOnUse">
      <stop stop-color="#2DA15D"></stop>
      <stop offset="1" stop-color="#0F5C33"></stop>
    </linearGradient>
    <linearGradient id="poleleLeaf" x1="34" y1="30" x2="64" y2="68" gradientUnits="userSpaceOnUse">
      <stop stop-color="#FFFFFF"></stop>
      <stop offset="1" stop-color="#C6F0D5"></stop>
    </linearGradient>
  </defs>
  <circle cx="48" cy="48" r="48" fill="url(#poleleBg)"></circle>
  
  <path d="M14 60 A40 40 0 0 1 82 60" stroke="#9BD4F5" stroke-width="2.5" stroke-linecap="round" opacity="0.55"></path>
  
  <path d="M48 70 C30 70 20 56 22 38 C40 36 52 48 50 66" fill="url(#poleleLeaf)"></path>
  <path d="M49 66 C49 52 40 42 27 40" stroke="#1A8B4F" stroke-width="2" stroke-linecap="round" opacity="0.45" fill="none"></path>
  
  <circle cx="38" cy="48" r="3.1" fill="#0F5C33"></circle>
  <circle cx="50" cy="50" r="3.1" fill="#0F5C33"></circle>
  
  <path d="M37 56 Q44 61 51 57" stroke="#0F5C33" stroke-width="2.2" stroke-linecap="round" fill="none"></path>
  
  <path d="M68 30 l1.6 4.2 4.2 1.6 -4.2 1.6 -1.6 4.2 -1.6 -4.2 -4.2 -1.6 4.2 -1.6 z" fill="#FFE9A8"></path>
</svg>